<?xml version="1.0" encoding="UTF-8"?>
<!-- Created with Inkscape (http://www.inkscape.org/) -->
<svg version="1.1" viewBox="0 0 48 48" xmlns="http://www.w3.org/2000/svg">
 <rect x="1" y="1" width="46" height="46" rx="6" ry="6" fill="#2f4f4f" stroke="#deb887" stroke-width="2"/>
 <path d="m33.568 33.952q-1.248 0-1.248-1.536l-0.32-0.32q-1.056-1.248-1.888-1.856t-1.632-0.96q-2.56 4.416-7.456 4.416-2.016 0-4.064-0.832-2.048-0.864-4.128-2.624-0.256-0.192-0.352-0.448t-0.096-0.512q0-0.512 0.384-0.896t0.896-0.384q0.416 0 0.8 0.288 1.824 1.536 3.488 2.208 1.696 0.64 3.04 0.64 1.312 0 2.4-0.48t1.856-1.248q0.768-0.8 1.184-1.792 0.448-0.992 0.448-2.016 0-0.736-0.32-1.6t-0.96-1.568q-0.64-0.736-1.632-1.216t-2.368-0.48q-1.44 0-2.496 0.864-1.024 0.832-1.024 2.528 0 0.608 0.224 1.056t0.576 0.736 0.768 0.448q0.416 0.128 0.768 0.128 0.416 0 0.8-0.192-0.448-0.128-0.768-0.448-0.288-0.352-0.288-0.8 0-0.352 0.16-0.64 0.192-0.288 0.48-0.48 0.288-0.224 0.64-0.32 0.352-0.128 0.672-0.128 0.96 0 1.632 0.704 0.704 0.672 0.704 1.6 0 0.64-0.352 1.216-0.32 0.576-0.896 1.024-0.544 0.448-1.28 0.736-0.736 0.256-1.504 0.256-0.96 0-1.856-0.352-0.864-0.352-1.536-0.992-0.672-0.672-1.088-1.568t-0.416-1.984q0-0.608 0.128-1.088 0.288-1.376 0.896-2.304 0.608-0.96 1.408-1.504 0.832-0.544 1.76-0.768 0.96-0.256 1.888-0.256 2.016 0 3.488 0.736 1.504 0.704 2.464 1.824 0.96 1.088 1.408 2.4 0.48 1.28 0.48 2.432 0 0.32-0.032 0.64t-0.096 0.64q1.6 0.64 3.008 1.856v-12.128h-21.024q-0.512 0-0.896-0.384t-0.384-0.896q0-0.544 0.384-0.896 0.384-0.384 0.896-0.384h25.44q0.512 0 0.864 0.384 0.384 0.352 0.384 0.896 0 0.512-0.352 0.896t-0.896 0.384h-1.888v16.096q0 0.512-0.384 0.896-0.352 0.352-0.896 0.352z" fill="#fff"/>
</svg>
